<svg xmlns="http://www.w3.org/2000/svg" version="1.1" xmlns:xlink="http://www.w3.org/1999/xlink" xmlns:svgjs="http://svgjs.com/svgjs" width="1509" height="69" preserveAspectRatio="none" viewBox="0 0 1509 69"><g mask="url(&quot;#SvgjsMask1000&quot;)" fill="none"><path d="M1534.1500000000003 69L0 69 L0 40.36Q60.98 -24.41, 125.75 36.57Q203.71 -11.22, 251.5 66.74Q319.38 8.87, 377.25 76.75Q423.25 -3, 503 43Q573.77 -11.98, 628.75 58.79Q677.42 32.01, 704.2 80.68Q736.79 37.81, 779.6500000000001 70.4Q802.55 17.85, 855.1000000000001 40.75Q901.75 11.94, 930.5500000000002 58.59Q1001.43 3.72, 1056.3000000000002 74.59Q1074.35 17.19, 1131.7500000000002 35.24Q1201.2 -21.06, 1257.5000000000002 48.39Q1301.92 17.36, 1332.9500000000003 61.78Q1401.59 4.66, 1458.7000000000003 73.3Q1476.24 15.39, 1534.1500000000003 32.93z" fill="rgba(109, 68, 253, 1)"></path></g><defs><mask id="SvgjsMask1000"><rect width="1509" height="69" fill="#ffffff"></rect></mask></defs></svg>